<?xml version="1.0" encoding="utf-8"?>
<!-- Generator: Adobe Illustrator 22.0.0, SVG Export Plug-In . SVG Version: 6.00 Build 0)  -->
<svg version="1.1" id="Group_1_copy_11" xmlns="http://www.w3.org/2000/svg" xmlns:xlink="http://www.w3.org/1999/xlink" x="0px"
	 y="0px" viewBox="0 0 708.3 194.7" style="enable-background:new 0 0 708.3 194.7;" xml:space="preserve">
<style type="text/css">
	.st6{fill:#D71921;}
	.st5{fill:#082243;}
</style>
<g>
	<path class="st6" d="M333.5,96.6l-14.3-9.4c-2-1.4-4.8,0.1-4.8,2.6v18.9c0,2.5,2.7,3.9,4.8,2.6l14.3-9.4
		C335.4,100.6,335.4,97.9,333.5,96.6z"/>
	<path class="st6" d="M377.6,91.4h-4.9h-12.9h-9.2c-3.4-12.5-14.8-21.7-28.3-21.7c-13.5,0-24.9,9.2-28.3,21.7h-9.3
		c3.2-17.9,18.7-31.5,37.5-31.5c14.2,0,26.5,7.7,33.1,19.2h19.4c-7.8-21.5-28.3-36.8-52.5-36.8c-30.8,0-55.8,25-55.8,55.8
		c0,2.8,0.2,5.5,0.6,8.2h4.7H285h8.8c3.2,12.8,14.7,22.2,28.5,22.2c13.7,0,25.3-9.5,28.5-22.2h8.7c-3.8,17.1-19,30-37.2,30
		c-13.5,0-25.4-7.1-32.2-17.7h-19.7c8.2,20.7,28.3,35.3,51.9,35.3c30.8,0,55.8-25,55.8-55.8C378,95.8,377.8,93.6,377.6,91.4z
		 M322.3,119.6c-11.3,0-20.5-9.2-20.5-20.5c0-11.3,9.2-20.5,20.5-20.5c11.3,0,20.5,9.2,20.5,20.5
		C342.8,110.4,333.6,119.6,322.3,119.6z"/>
</g>
<g>
	<path class="st6" d="M235.1,145.3V62.8c0-5.4,4.3-9.8,9.7-9.8h0c5.4,0,9.7,4.4,9.7,9.8v82.5H235.1z"/>
	<path class="st5" d="M454.3,53L454.3,53c-7.1,0-13.6,2.7-18.5,7.2c-4.9-4.4-11.4-7.2-18.5-7.2h0c-15.3,0-27.6,12.4-27.6,27.6v64.5
		H408V80.6c0-5.1,4.1-9.2,9.2-9.2c5.1,0,9.2,4.1,9.2,9.2v49c0,0.8,0.1,1.5,0.2,2.2v13.2h18.4V80.6c0-5.1,4.1-9.2,9.2-9.2h0
		c5.1,0,9.2,4.1,9.2,9.2v64.5h18.4V80.6C481.9,65.4,469.5,53,454.3,53z"/>
	<path class="st6" d="M200.8,93.1c-2.4-1.5-5.2-2.5-8.1-2.7c-1.5-0.2-3-0.4-4.6-0.4H146c-4-1-6.9-4.6-6.9-8.9c0-5.1,4.1-9.2,9.2-9.2
		h49c10.2,0,18.4-8.3,18.4-18.4h-67.4c-15.3,0-27.6,12.4-27.6,27.6v0c0,10.7,6.1,19.9,14.9,24.5c2.4,1.5,5.2,2.5,8.1,2.7
		c1.5,0.2,3,0.4,4.6,0.4h42.1c4,1,6.9,4.6,6.9,8.9v0c0,5.1-4.1,9.2-9.2,9.2h-48.8c-10.2,0-18.4,8.3-18.4,18.4v0h67.2
		c15.3,0,27.6-12.4,27.6-27.6v0C215.7,107,209.7,97.8,200.8,93.1z"/>
	<path class="st5" d="M543.5,53h-15.7c-15.3,0-27.6,12.4-27.6,27.6v64.5h18.4v-34.9h34.1v34.9h18.4V80.6
		C571.1,65.4,558.8,53,543.5,53z M518.6,90.8V80.6c0-5.1,4.1-9.2,9.2-9.2v0h15.7v0c5.1,0,9.2,4.1,9.2,9.2v10.2H518.6z"/>
</g>
<g>
	<path class="st6" d="M579.8,27.6c0-12.9,7.4-20.9,19.8-20.9c12.4,0,19.7,8.1,19.7,20.9v5.7c0,12.8-7.4,20.6-19.8,20.6
		c-12.4,0-19.7-7.8-19.7-20.6V27.6z M589.6,33.3c0,8.5,4.1,12.6,9.9,12.6c5.8,0,9.9-4.1,9.9-12.6v-5.8c0-8.5-4.1-12.9-9.9-12.9
		c-5.8,0-9.9,4.4-9.9,12.9V33.3z"/>
	<path class="st6" d="M634.9,53V15.5h-12.8v-8h35.2v8h-12.8V53H634.9z"/>
	<path class="st6" d="M671.6,53V15.5h-12.8v-8H694v8h-12.8V53H671.6z"/>
</g>
</svg>
