<?xml version="1.0" encoding="utf-8"?>
<!-- Generator: Adobe Illustrator 22.0.0, SVG Export Plug-In . SVG Version: 6.00 Build 0)  -->
<svg version="1.1" id="Layer_1" xmlns="http://www.w3.org/2000/svg" xmlns:xlink="http://www.w3.org/1999/xlink" x="0px" y="0px"
	 viewBox="0 0 123.1 73.6" style="enable-background:new 0 0 123.1 73.6;" xml:space="preserve">
<style type="text/css">
	.st0{fill-rule:evenodd;clip-rule:evenodd;fill:#6D6E70;}
	.st4{fill:#F48120;}
	.st2{clip-path:url(#SVGID_2_);fill:url(#SVGID_3_);}
	.st3{fill:#6D6E70;}
</style>
<title>logo</title>
<desc>Created with Sketch.</desc>
<g>
	<path class="st0" d="M107,20.8c3.4,0.7,10.2,2.2,8.3,7.6c-1.7,4.6-10.6,10.1-20.9,12.8c-12.7,3.3-25.3,1.9-26.9-3.3
		C66.7,35.2,69,32,73,29.4v-3.2c-7,3.9-11,8.6-9.7,12.5c2,6.2,16.2,8,31.8,4.1c15.6-3.9,26.6-12.1,24.6-18.3
		c-1.6-5.1-10.7-5.9-15.2-6.5C105.5,19.1,106.3,19.8,107,20.8"/>
	<path class="st4" d="M78.1,19.6v21.2c-1.1-0.1-2.2-0.3-3.2-0.5V17.8c0-4.8,0.9-8,6.4-8h1.1V4.6c0-0.8,0.8-1.4,1.8-1.4
		c1,0,1.9,0.6,1.9,1.4v5.2h14.5c4.9,0,6.2,2.6,6.3,6.6c-1-0.2-2.2-0.3-3.2-0.4c-0.2-1.6-1-2.6-3.5-2.6H81.5
		C78,13.4,78,16.2,78.1,19.6 M80.1,46.9c2.9,4.3,8.3,5.9,13.3,5.1c5.2-0.9,9.2-4.4,10.1-9.7c1.1-0.4,2.2-0.9,3.3-1.4
		c-0.5,7.6-6.1,13.1-13.3,14.2c-6.8,1-13.9-1.9-17-8.3C77.7,46.9,78.9,46.9,80.1,46.9"/>
	<g>
		<defs>
			<path id="SVGID_1_" d="M86.8,30.5c0.3,0.9,0.7,1.7,1.2,2.4c3.7,0.8,8.9,0.2,12.3-1.6c-2,2.3-6.5,3.6-10.7,3.3
				c3.1,2.6,7.6,3,11,0.8c3.4-2.1,5.3-6.3,4.1-10.5C101.6,30.8,92.6,31.4,86.8,30.5 M86.4,28.8c5.7,1.3,15,0.5,17.6-5.6
				c-0.4-0.7-0.8-1.4-1.3-2c-0.6,3.7-7,5.4-10.2,5.2c2.6-0.3,9.1-3,9.2-6.2c-1.6-1.4-3.8-2.2-6.1-2.2C89.9,18.1,85.6,23.2,86.4,28.8
				"/>
		</defs>
		<clipPath id="SVGID_2_">
			<use xlink:href="#SVGID_1_"  style="overflow:visible;"/>
		</clipPath>
		
			<radialGradient id="SVGID_3_" cx="-197.2024" cy="457.4868" r="1.2968" gradientTransform="matrix(6.477 0 0 -6.477 1373.9772 2989.23)" gradientUnits="userSpaceOnUse">
			<stop  offset="0" style="stop-color:#FFCA05"/>
			<stop  offset="1" style="stop-color:#F48120"/>
		</radialGradient>
		<rect x="85.6" y="18.1" class="st2" width="20.3" height="19.5"/>
	</g>
</g>
<path class="st3" d="M11,45.8H8.8v10.7h-3V45.8H3.5v-2H11V45.8z M8.9,69.3L6.7,62H4.6L3.5,72.3h1.6l0.7-7.6l2.5,7.6h0.6h0.6l2.5-7.6
	l0.7,7.6h1.6L13.2,62h-2.1L8.9,69.3L8.9,69.3z M72.9,71.7c-1.1,0-1.8-0.5-1.8-1.7c0-0.7,0.2-1.2,0.8-1.6c0.6-0.4,1.5-0.5,2.2-0.5
	v3.5C73.7,71.6,73.4,71.7,72.9,71.7 M75.9,72V67c0-2-1.1-2.9-3.1-2.9c-1,0-2,0.2-2.9,0.5l0.4,0.9c0.7-0.3,1.3-0.4,2.1-0.4
	c0.9,0,1.8,0.3,1.8,1.4v0.6c-1.1,0.1-2.5,0.3-3.5,0.8c-0.8,0.4-1.3,1.1-1.3,2.1C69.3,73.1,74,72.9,75.9,72 M67.9,61.6
	c0-0.6-0.5-0.9-1.1-0.9c-0.5,0-1.1,0.4-1.1,0.9c0,0.6,0.5,0.9,1.1,0.9C67.3,62.5,67.9,62.2,67.9,61.6 M67.8,64.3h-2v8h2V64.3z
	 M61,71.4c-1.7,0-2.1-1.8-2.1-3.2c0-1.5,0.4-3.2,2.1-3.2c0.3,0,0.5,0,0.8,0.1l0.2,0.1v5.9C61.6,71.4,61.4,71.4,61,71.4 M63.9,72
	V60.4H62v4c-0.5-0.1-0.9-0.2-1.5-0.2c-2.4,0-3.5,2-3.5,4.2c0,2.5,1.3,4.1,3.9,4.1C61.9,72.5,63,72.4,63.9,72 M54,67.8l-3.5,0.5
	c0-0.8-0.1-1.7,0.4-2.4c0.3-0.5,0.8-0.8,1.4-0.8C53.9,65.1,54,66.6,54,67.8 M55.8,68.2c0-1-0.2-2.2-0.8-3c-0.6-0.8-1.6-1.1-2.6-1.1
	c-1,0-2,0.3-2.6,1.1c-0.7,0.9-1,2-1,3c0,1.6,0.5,3.2,2.1,3.8c1.4,0.6,3.2,0.4,4.5-0.1L55.1,71c-1.8,0.7-4.1,0.6-4.4-1.7l0-0.2
	L55.8,68.2z M47.8,72.3v-5.7c0-0.7-0.2-1.3-0.7-1.7c-0.6-0.5-1.3-0.7-2.1-0.7c-1.1,0-2,0.2-2.8,0.9c-0.8-0.8-1.6-0.9-2.7-0.9
	c-1.1,0-2.2,0.1-3.2,0.5v7.6h2v-6.9c0.4-0.2,0.8-0.2,1.2-0.2c0.9,0,1.6,0.4,1.6,1.4v5.8h2v-6.6l0.1-0.1c0.3-0.3,0.8-0.5,1.3-0.5
	c0.9,0,1.5,0.5,1.5,1.4v5.7H47.8z M34.6,61.6c0-0.3-0.1-0.5-0.3-0.6c-0.2-0.2-0.5-0.3-0.8-0.3c-0.3,0-0.5,0.1-0.8,0.3
	c-0.2,0.2-0.3,0.4-0.3,0.6c0,0.3,0.1,0.5,0.3,0.6c0.2,0.2,0.5,0.3,0.8,0.3c0.3,0,0.5-0.1,0.8-0.3C34.5,62.1,34.6,61.9,34.6,61.6
	 M34.5,64.3h-2v8h2V64.3z M31.1,72.3v-1c-0.9,0.2-1.3-0.4-1.3-1.2v-4.7h1.3v-1.1h-1.3V62l-2,0.5v1.9h-0.9v1.1h0.9v4.8
	C27.8,72.1,29.5,72.9,31.1,72.3 M25.7,60.4h-2v11.9h2V60.4z M17.2,64.3h-2v5.5c0,2.1,1.4,2.7,3.3,2.7c1.1,0,2.3-0.1,3.3-0.6v-7.6h-2
	V71c-0.4,0.2-0.8,0.3-1.3,0.3c-0.9,0-1.4-0.5-1.4-1.4V64.3z M60.4,50.2c0,1.9-0.4,3.5-1.1,4.6c-0.9,1.3-2.2,1.9-3.8,1.9
	c-3.8,0-5-3.3-5-6.5c0-1.9,0.4-3.5,1.2-4.6c0.9-1.3,2.1-1.9,3.8-1.9c1.7,0,2.9,0.6,3.8,1.9C60,46.7,60.4,48.2,60.4,50.2 M57.3,50.1
	c0-3-0.6-4.5-1.9-4.5c-1.3,0-1.9,1.5-1.9,4.5c0,3,0.6,4.5,1.9,4.5C56.7,54.5,57.3,53,57.3,50.1 M48.7,50.1c0,3.1-1.1,5.6-3.8,6.4
	c-1.6,0.4-4.2,0.2-5.6-0.5V44.4c2.4-1.2,6.3-1.1,8.1,1.1C48.3,46.6,48.7,48.1,48.7,50.1 M45.7,50.1c0-1.8-0.1-4.5-2.6-4.5
	c-0.3,0-0.6,0-0.9,0.1v8.8c0.9,0.3,2,0.1,2.6-0.6C45.6,52.9,45.7,51.3,45.7,50.1 M33.4,52.8c0,2.6-2,4-4.4,4c-2.4,0-4.4-1.4-4.4-4
	v-9h3v9c0,1,0.5,1.7,1.5,1.7c1,0,1.5-0.8,1.5-1.7v-8.9h2.8V52.8z M22.1,56.5h-3V51h-3.2v5.5h-3V43.8h3V49h3.2v-5.3h3V56.5z"/>
</svg>
